HIERARCHY
ROOT Hips
{
	OFFSET 0.000000 97.167313 0.000000
	CHANNELS 6 Xposition Yposition Zposition Xrotation Yrotation Zrotation
	JOINT Spine
	{
		OFFSET 0.000000 13.784798 0.064400
		CHANNELS 3 Xrotation Yrotation Zrotation
		JOINT Spine1
		{
			OFFSET 0.000000 12.037903 0.404700
			CHANNELS 3 Xrotation Yrotation Zrotation
			JOINT Spine2
			{
				OFFSET 0.000000 17.795601 0.420200
				CHANNELS 3 Xrotation Yrotation Zrotation
				JOINT Neck
				{
					OFFSET 0.000000 39.131302 11.954600
					CHANNELS 3 Xrotation Yrotation Zrotation
					JOINT Head
					{
						OFFSET 0.000000 14.456192 15.627699
						CHANNELS 3 Xrotation Yrotation Zrotation
						JOINT HeadTop_End
						{
							OFFSET 0.000000 15.703506 7.603401
							CHANNELS 3 Xrotation Yrotation Zrotation
							End Site
							{
								OFFSET 0.000000 17.447403 0.000000
							}
						}
					}
				}
				JOINT LeftShoulder
				{
					OFFSET 17.399500 24.608795 1.168800
					CHANNELS 3 Xrotation Yrotation Zrotation
					JOINT LeftArm
					{
						OFFSET 18.980635 5.765305 1.818600
						CHANNELS 3 Xrotation Yrotation Zrotation
						JOINT LeftForeArm
						{
							OFFSET 49.290169 0.000000 0.000000
							CHANNELS 3 Xrotation Yrotation Zrotation
							JOINT LeftHand
							{
								OFFSET 31.562012 0.000000 0.000000
								CHANNELS 3 Xrotation Yrotation Zrotation
								JOINT LeftHandThumb1
								{
									OFFSET 6.133995 -4.388519 7.076070
									CHANNELS 3 Xrotation Yrotation Zrotation
									JOINT LeftHandThumb2
									{
										OFFSET 6.037666 -3.485840 3.485847
										CHANNELS 3 Xrotation Yrotation Zrotation
										JOINT LeftHandThumb3
										{
											OFFSET 6.496506 -3.750763 3.750761
											CHANNELS 3 Xrotation Yrotation Zrotation
											JOINT LeftHandThumb4
											{
												OFFSET 5.616882 -3.242905 3.242910
												CHANNELS 3 Xrotation Yrotation Zrotation
												End Site
												{
													OFFSET -1.254608 7.132141 0.375429
												}
											}
										}
									}
								}
								JOINT LeftHandPinky1
								{
									OFFSET 18.920792 -0.453171 -11.426712
									CHANNELS 3 Xrotation Yrotation Zrotation
									JOINT LeftHandPinky2
									{
										OFFSET 4.919586 0.000000 0.000000
										CHANNELS 3 Xrotation Yrotation Zrotation
										JOINT LeftHandPinky3
										{
											OFFSET 5.233047 0.000000 0.000000
											CHANNELS 3 Xrotation Yrotation Zrotation
											JOINT LeftHandPinky4
											{
												OFFSET 5.571716 0.000000 0.000000
												CHANNELS 3 Xrotation Yrotation Zrotation
												End Site
												{
													OFFSET -3.459808 4.342407 -0.466164
												}
											}
										}
									}
								}
								JOINT LeftHandRing1
								{
									OFFSET 22.726120 -0.094986 -6.500475
									CHANNELS 3 Xrotation Yrotation Zrotation
									JOINT LeftHandRing2
									{
										OFFSET 6.408615 0.000000 0.000000
										CHANNELS 3 Xrotation Yrotation Zrotation
										JOINT LeftHandRing3
										{
											OFFSET 6.150223 0.000000 0.000000
											CHANNELS 3 Xrotation Yrotation Zrotation
											JOINT LeftHandRing4
											{
												OFFSET 6.145386 0.000000 0.000000
												CHANNELS 3 Xrotation Yrotation Zrotation
												End Site
												{
													OFFSET -3.671402 4.923981 -0.202372
												}
											}
										}
									}
								}
								JOINT LeftHandMiddle1
								{
									OFFSET 23.373947 0.000000 0.000001
									CHANNELS 3 Xrotation Yrotation Zrotation
									JOINT LeftHandMiddle2
									{
										OFFSET 6.996567 0.000000 0.000000
										CHANNELS 3 Xrotation Yrotation Zrotation
										JOINT LeftHandMiddle3
										{
											OFFSET 7.015945 0.000000 0.000000
											CHANNELS 3 Xrotation Yrotation Zrotation
											JOINT LeftHandMiddle4
											{
												OFFSET 7.721573 0.000000 0.000000
												CHANNELS 3 Xrotation Yrotation Zrotation
												End Site
												{
													OFFSET -4.651108 6.158463 0.251582
												}
											}
										}
									}
								}
								JOINT LeftHandIndex1
								{
									OFFSET 21.310577 -0.490082 6.209344
									CHANNELS 3 Xrotation Yrotation Zrotation
									JOINT LeftHandIndex2
									{
										OFFSET 7.536453 0.000000 0.000000
										CHANNELS 3 Xrotation Yrotation Zrotation
										JOINT LeftHandIndex3
										{
											OFFSET 7.512344 0.000000 0.000000
											CHANNELS 3 Xrotation Yrotation Zrotation
											JOINT LeftHandIndex4
											{
												OFFSET 10.212402 0.000000 0.000001
												CHANNELS 3 Xrotation Yrotation Zrotation
												End Site
												{
													OFFSET -5.180801 8.690506 1.388433
												}
											}
										}
									}
								}
							}
						}
					}
				}
				JOINT RightShoulder
				{
					OFFSET -17.399500 24.608795 1.168800
					CHANNELS 3 Xrotation Yrotation Zrotation
					JOINT RightArm
					{
						OFFSET -18.980635 5.765305 1.818600
						CHANNELS 3 Xrotation Yrotation Zrotation
						JOINT RightForeArm
						{
							OFFSET -49.290169 0.000000 0.000000
							CHANNELS 3 Xrotation Yrotation Zrotation
							JOINT RightHand
							{
								OFFSET -31.562012 0.000000 0.000000
								CHANNELS 3 Xrotation Yrotation Zrotation
								JOINT RightHandThumb1
								{
									OFFSET -6.133995 -4.388519 7.076070
									CHANNELS 3 Xrotation Yrotation Zrotation
									JOINT RightHandThumb2
									{
										OFFSET -6.037666 -3.485840 3.485847
										CHANNELS 3 Xrotation Yrotation Zrotation
										JOINT RightHandThumb3
										{
											OFFSET -6.496506 -3.750763 3.750761
											CHANNELS 3 Xrotation Yrotation Zrotation
											JOINT RightHandThumb4
											{
												OFFSET -5.616882 -3.242905 3.242910
												CHANNELS 3 Xrotation Yrotation Zrotation
												End Site
												{
													OFFSET 1.254608 7.132141 0.375429
												}
											}
										}
									}
								}
								JOINT RightHandIndex1
								{
									OFFSET -21.310577 -0.490082 6.209344
									CHANNELS 3 Xrotation Yrotation Zrotation
									JOINT RightHandIndex2
									{
										OFFSET -7.536453 0.000000 0.000000
										CHANNELS 3 Xrotation Yrotation Zrotation
										JOINT RightHandIndex3
										{
											OFFSET -7.512344 0.000000 0.000000
											CHANNELS 3 Xrotation Yrotation Zrotation
											JOINT RightHandIndex4
											{
												OFFSET -10.212402 0.000000 0.000001
												CHANNELS 3 Xrotation Yrotation Zrotation
												End Site
												{
													OFFSET 5.180801 8.690506 1.388433
												}
											}
										}
									}
								}
								JOINT RightHandMiddle1
								{
									OFFSET -23.373947 0.000000 0.000001
									CHANNELS 3 Xrotation Yrotation Zrotation
									JOINT RightHandMiddle2
									{
										OFFSET -6.996567 0.000000 0.000000
										CHANNELS 3 Xrotation Yrotation Zrotation
										JOINT RightHandMiddle3
										{
											OFFSET -7.015945 0.000000 0.000000
											CHANNELS 3 Xrotation Yrotation Zrotation
											JOINT RightHandMiddle4
											{
												OFFSET -7.721573 0.000000 0.000000
												CHANNELS 3 Xrotation Yrotation Zrotation
												End Site
												{
													OFFSET 4.651108 6.158463 0.251582
												}
											}
										}
									}
								}
								JOINT RightHandRing1
								{
									OFFSET -22.726120 -0.094986 -6.500475
									CHANNELS 3 Xrotation Yrotation Zrotation
									JOINT RightHandRing2
									{
										OFFSET -6.408615 0.000000 0.000000
										CHANNELS 3 Xrotation Yrotation Zrotation
										JOINT RightHandRing3
										{
											OFFSET -6.150223 0.000000 0.000000
											CHANNELS 3 Xrotation Yrotation Zrotation
											JOINT RightHandRing4
											{
												OFFSET -6.145386 0.000000 0.000000
												CHANNELS 3 Xrotation Yrotation Zrotation
												End Site
												{
													OFFSET 3.671402 4.923981 -0.202372
												}
											}
										}
									}
								}
								JOINT RightHandPinky1
								{
									OFFSET -18.920792 -0.453171 -11.426712
									CHANNELS 3 Xrotation Yrotation Zrotation
									JOINT RightHandPinky2
									{
										OFFSET -4.919586 0.000000 0.000000
										CHANNELS 3 Xrotation Yrotation Zrotation
										JOINT RightHandPinky3
										{
											OFFSET -5.233047 0.000000 0.000000
											CHANNELS 3 Xrotation Yrotation Zrotation
											JOINT RightHandPinky4
											{
												OFFSET -5.571716 0.000000 0.000000
												CHANNELS 3 Xrotation Yrotation Zrotation
												End Site
												{
													OFFSET 3.459808 4.342407 -0.466164
												}
											}
										}
									}
								}
							}
						}
					}
				}
			}
		}
	}
	JOINT LeftUpLeg
	{
		OFFSET 19.899099 -7.885101 -3.429500
		CHANNELS 3 Xrotation Yrotation Zrotation
		JOINT LeftLeg
		{
			OFFSET 1.745560 -36.997807 10.304700
			CHANNELS 3 Xrotation Yrotation Zrotation
			JOINT LeftFoot
			{
				OFFSET -1.745558 -29.803308 -13.615400
				CHANNELS 3 Xrotation Yrotation Zrotation
				JOINT LeftToeBase
				{
					OFFSET 1.181900 -18.539904 15.226099
					CHANNELS 3 Xrotation Yrotation Zrotation
					JOINT LeftToe_End
					{
						OFFSET -0.863701 1.402801 16.534700
						CHANNELS 3 Xrotation Yrotation Zrotation
						End Site
						{
							OFFSET 0.000000 16.616566 0.000000
						}
					}
				}
			}
		}
	}
	JOINT RightUpLeg
	{
		OFFSET -19.899099 -7.885101 -3.429500
		CHANNELS 3 Xrotation Yrotation Zrotation
		JOINT RightLeg
		{
			OFFSET -1.745560 -36.997807 10.304700
			CHANNELS 3 Xrotation Yrotation Zrotation
			JOINT RightFoot
			{
				OFFSET 1.745558 -29.803308 -13.615400
				CHANNELS 3 Xrotation Yrotation Zrotation
				JOINT RightToeBase
				{
					OFFSET -1.181900 -18.539904 15.226099
					CHANNELS 3 Xrotation Yrotation Zrotation
					JOINT RightToe_End
					{
						OFFSET 0.863701 1.402801 16.534700
						CHANNELS 3 Xrotation Yrotation Zrotation
						End Site
						{
							OFFSET 0.000000 16.616566 0.000000
						}
					}
				}
			}
		}
	}
}
MOTION
Frames: 5
Frame Time: 0.033333
-0.637152 82.760414 3.479917 9.984270 7.827196 -2.509003 5.880597 -8.370960 2.651993 0.140399 -2.240761 0.777362 0.126932 -2.250079 0.778909 -6.188588 -1.550773 -2.819386 -6.065972 -10.762975 0.041405 -0.000000 -0.000001 -0.000000 0.609508 -1.901709 -11.225380 -8.231707 -35.251921 -60.178789 -0.000000 -52.074923 -0.000004 10.666182 -31.842250 2.423523 4.972938 -0.919234 4.455782 7.416835 13.559459 3.778468 -10.276933 -8.025452 12.851077 -0.000004 -0.000001 -0.000002 2.244610 16.205445 -22.664086 0.579227 2.541865 -25.670856 0.579255 2.541856 -25.670846 0.000000 0.000002 0.000001 0.933456 5.741948 -20.413993 0.491117 2.349915 -23.606373 0.332579 1.947549 -19.379567 -0.000001 -0.000003 0.000005 -0.686710 0.199385 -14.655419 0.595569 2.575512 -26.036319 0.076707 0.945854 -9.271213 -0.000000 -0.000001 0.000001 0.332619 -2.971037 -1.456174 0.830580 3.008818 -30.858276 0.830591 3.008824 -30.858289 -0.000000 0.000005 0.000002 0.671316 -0.107823 12.339202 15.210611 10.500675 58.867235 0.000003 20.016453 0.000016 -0.817882 1.974612 -0.698159 3.996980 2.831341 -3.863208 7.792923 -15.417163 -4.488180 -8.389264 2.112107 -14.768624 -0.000002 0.000000 -0.000002 0.382179 3.131418 0.644829 0.662449 -2.395999 30.906644 0.662461 -2.395999 30.906633 -0.000000 -0.000005 -0.000006 -0.709923 0.247538 13.910241 0.475066 -2.051027 26.079670 0.061485 -0.755066 9.310359 -0.000001 0.000000 -0.000001 0.798328 -5.174217 19.770758 0.391792 -1.871429 23.646689 0.265094 -1.550352 19.404866 -0.000001 -0.000001 -0.000002 1.997358 -15.634341 22.197613 0.462060 -2.024242 25.713755 0.462058 -2.024254 25.713745 0.000001 -0.000001 -0.000001 12.454989 2.841475 -6.346667 20.359156 4.083093 -0.001508 -33.256338 -0.425906 3.242781 -13.813171 0.000004 -0.000001 0.000000 -0.000001 -0.000000 -50.371409 -2.860834 -1.566270 30.191369 -10.966760 0.666881 9.674605 -13.590831 1.072601 -0.028085 0.000013 -0.000002 0.000000 -0.000001 0.000000 
-1.219544 80.618355 4.031154 7.950420 12.629268 -2.372435 6.998094 -11.199411 3.305996 0.202224 -3.051040 0.696966 0.200211 -3.057362 0.704255 -5.328793 -0.872570 -2.493128 -4.208763 -6.938967 -0.474177 0.000000 -0.000001 -0.000000 0.591786 -2.688107 -11.073971 -12.815165 -37.631388 -58.592682 -0.000005 -48.930785 -0.000042 6.805240 -32.601767 -1.030324 5.173610 -1.485276 5.144084 7.138741 13.924301 3.070269 -10.729496 -8.425796 12.570455 0.000002 -0.000000 -0.000002 2.426595 16.608443 -23.153797 0.609377 2.603589 -26.342385 0.609383 2.603577 -26.342390 -0.000003 0.000001 -0.000004 0.977808 5.825462 -20.880319 0.517574 2.409471 -24.243101 0.347511 1.989480 -19.814433 -0.000000 -0.000002 0.000005 -0.730317 0.120879 -14.997343 0.626657 2.638105 -26.719744 0.077933 0.953411 -9.345999 0.000000 -0.000001 0.000002 0.350877 -3.157487 -1.364749 0.875230 3.082209 -31.698546 0.875222 3.082197 -31.698553 -0.000002 0.000005 0.000002 0.659915 -2.242474 11.233014 15.144269 0.795972 59.393829 0.000000 23.997979 0.000024 -4.568515 1.168158 -4.749536 4.023034 2.925898 -3.763159 7.813790 -15.678339 -4.511133 -8.630617 2.452520 -16.012409 0.000001 0.000000 0.000002 0.383706 3.046259 0.631742 0.614372 -2.313844 29.736328 0.496921 -2.095056 26.683828 -0.000002 0.000000 0.000001 -0.654185 0.157092 13.389425 0.403181 -1.897225 23.993143 0.061600 -0.755786 9.319277 -0.000000 -0.000000 -0.000009 0.772638 -5.139287 19.259371 0.332359 -1.729421 21.755046 0.195828 -1.337635 16.656936 -0.000000 -0.000000 0.000000 1.976883 -15.579477 21.575087 0.392112 -1.872163 23.656531 0.353960 -1.782581 22.460102 -0.000000 -0.000001 0.000007 7.113111 6.515838 -4.952342 31.943152 1.292298 -1.319876 -41.413274 4.667579 6.951729 -12.495910 -0.000006 0.000001 -0.000001 0.000001 0.000000 -51.040095 -1.764675 -2.694175 38.938044 -9.679438 0.651424 4.513863 -19.426861 3.299147 0.043973 0.000129 -0.117345 0.000000 -0.000002 -0.000000 
-1.828072 79.029449 4.947584 5.681215 17.206689 -1.831777 8.133490 -14.116466 3.745276 0.253760 -3.882465 0.603128 0.261763 -3.885482 0.615579 -4.457204 -0.222801 -2.163789 -2.236281 -3.544972 -1.029573 -0.000000 0.000000 -0.000000 0.576556 -3.460170 -10.780756 -17.344617 -40.297460 -56.016540 0.000014 -45.078501 -0.000014 3.234286 -32.654731 -4.903685 5.561963 -2.523881 6.448622 6.619499 14.631993 1.751450 -11.584366 -9.167213 12.026419 -0.000002 -0.000003 -0.000003 2.787528 17.358367 -24.077491 0.667869 2.718384 -27.602015 0.667878 2.718370 -27.602022 -0.000000 0.000001 -0.000000 1.063765 5.980654 -21.755341 0.568930 2.520328 -25.437450 0.376373 2.067821 -20.630132 -0.000000 -0.000001 0.000003 -0.815177 -0.025207 -15.638656 0.686938 2.754527 -28.001675 0.080297 0.967589 -9.486221 -0.000000 -0.000000 0.000004 0.386752 -3.507027 -1.193035 0.961867 3.218020 -33.274776 0.961860 3.218009 -33.274773 -0.000001 0.000006 0.000002 0.610010 -4.222591 10.054439 15.212821 -8.873470 60.120882 -0.000006 28.216138 0.000010 -9.727814 -0.332356 -10.369099 4.048278 3.017170 -3.664107 7.835520 -15.947646 -4.532088 -8.882960 2.839194 -17.326465 -0.000000 -0.000001 -0.000002 0.386111 2.955931 0.608753 0.575136 -2.243837 28.749748 0.347141 -1.765994 22.239835 -0.000001 -0.000003 0.000003 -0.597791 0.060150 12.845108 0.331423 -1.727061 21.723898 0.062008 -0.758277 9.350335 0.000001 0.000000 -0.000004 0.746545 -5.103120 18.733462 0.273072 -1.572814 19.697711 0.132170 -1.102788 13.668350 -0.000002 -0.000001 -0.000000 1.957212 -15.524200 20.933148 0.322287 -1.703996 21.419139 0.252176 -1.513200 18.921844 -0.000001 -0.000000 0.000002 3.618755 10.040933 -3.999522 39.234232 -0.538762 -2.527269 -46.822043 8.747254 11.003372 -10.875131 0.000003 0.000001 0.000000 0.000002 -0.000001 -49.895208 -0.991245 -3.625257 45.945931 -8.875020 0.708782 -0.418208 -24.479758 5.082637 0.052711 0.000174 -0.140567 0.000000 -0.000002 0.000000 
-2.558487 77.664162 5.767893 3.375771 21.976941 -0.978505 9.290040 -17.108342 4.141505 0.295337 -4.712232 0.521739 0.311324 -4.712369 0.538761 -3.576341 0.315655 -1.854283 -0.265060 -1.528567 -1.480480 -0.000000 -0.000000 0.000000 0.569429 -4.217097 -10.352421 -21.631752 -42.532411 -52.466067 0.000027 -40.921426 0.000023 0.302738 -32.120095 -8.315390 5.664958 -2.787650 6.789099 6.486512 14.820018 1.412021 -11.805234 -9.357416 11.882536 -0.000000 0.000001 -0.000002 2.885278 17.551011 -24.317717 0.683405 2.747876 -27.927990 0.683416 2.747888 -27.927991 0.000000 0.000003 -0.000000 1.086577 6.020482 -21.981857 0.582622 2.548834 -25.746499 0.384049 2.088021 -20.841212 0.000002 -0.000004 0.000005 -0.837795 -0.062746 -15.804609 0.702966 2.784423 -28.333409 0.080908 0.971267 -9.522534 0.000000 -0.000001 0.000006 0.396332 -3.597449 -1.148511 0.984872 3.252791 -33.682689 0.984882 3.252776 -33.682689 -0.000001 -0.000000 0.000001 0.520685 -5.847763 8.750387 15.528592 -17.510324 60.459783 0.000013 32.632748 -0.000009 -14.927022 -1.479208 -15.792671 4.070398 3.103566 -3.564829 7.857925 -16.226023 -4.553543 -9.140517 3.261767 -18.691499 -0.000000 -0.000004 0.000001 0.389186 2.860747 0.577965 0.542828 -2.183937 27.913400 0.219270 -1.413645 17.633865 -0.000002 -0.000003 -0.000002 -0.541292 -0.042899 12.279115 0.261893 -1.541262 19.286590 0.062706 -0.762466 9.402432 0.000001 0.000000 -0.000004 0.720140 -5.065793 18.194208 0.215699 -1.402316 17.487909 0.077545 -0.847176 10.458322 0.000001 -0.000000 0.000002 1.938421 -15.468778 20.273385 0.254672 -1.520450 19.016068 0.161594 -1.217424 15.121772 -0.000000 -0.000002 0.000002 3.375795 12.624742 -2.193261 43.568045 1.090206 -3.981748 -50.029401 13.929808 10.493025 -8.960489 -0.000010 0.000001 -0.000000 -0.000001 -0.000000 -48.204057 -1.066504 -5.757639 51.612820 -10.000670 0.944285 -4.623224 -24.141491 6.533059 -0.577383 -0.000010 -0.000004 -0.000000 -0.000001 -0.000000 
-3.709232 76.232994 6.765197 1.392446 27.552039 0.123262 10.315388 -19.792746 4.398607 0.325387 -5.440971 0.471675 0.347547 -5.439326 0.492146 -2.693318 0.651803 -1.563306 1.651199 -1.524008 -1.505544 0.000001 0.000000 0.000000 0.570529 -4.912996 -9.879376 -25.532634 -43.427757 -48.488353 -0.000005 -37.145895 -0.000004 -2.373042 -31.121030 -10.269130 4.788973 -0.381002 3.815126 7.681004 13.225333 4.444840 -9.848819 -7.648405 13.110374 0.000002 0.000001 -0.000002 2.081093 15.825574 -22.206866 0.551638 2.483701 -25.041379 0.551655 2.483698 -25.041377 -0.000000 0.000006 0.000002 0.892844 5.663253 -19.977023 0.466954 2.293843 -23.009504 0.318873 1.908145 -18.971914 -0.000001 0.000000 0.000005 -0.646876 0.273337 -14.334895 0.567100 2.516477 -25.395731 0.075544 0.938768 -9.201157 -0.000003 -0.000002 0.000004 0.315964 -2.796244 -1.541735 0.789720 2.939424 -30.070676 0.789716 2.939424 -30.070673 -0.000001 0.000004 0.000004 0.399812 -6.947764 7.389069 15.794420 -24.538524 59.517941 0.000020 37.112892 -0.000021 -18.509273 -1.804370 -19.280043 4.087940 3.184371 -3.464409 7.880782 -16.513297 -4.577335 -9.392883 3.696947 -20.067186 0.000000 -0.000001 -0.000000 0.392616 2.762349 0.542346 0.512931 -2.126595 27.118441 0.119472 -1.049211 12.992179 -0.000001 -0.000003 0.000001 -0.485831 -0.150297 11.698924 0.197756 -1.344071 16.739305 0.063594 -0.767798 9.468862 -0.000004 0.000001 -0.000008 0.693670 -5.027593 17.646195 0.162807 -1.221881 15.178318 0.035819 -0.577160 7.103352 -0.000001 0.000003 -0.000005 1.920531 -15.413816 19.601987 0.192281 -1.325750 16.504543 0.088106 -0.902540 11.150432 -0.000001 0.000002 0.000004 5.439523 13.748865 1.243931 47.101480 5.954614 -5.847106 -50.244261 21.191920 3.922893 -7.189478 0.000024 -0.000003 -0.000000 -0.000000 -0.000000 -47.689825 -1.527693 -9.849902 55.194851 -5.199322 0.691776 -6.613481 -16.453634 7.881538 -2.225966 -0.000001 0.000002 0.000000 -0.000000 0.000000 
